PathFileType	4	(X/Y/Z)	/Users/niels/Desktop/University/Third Semester/Perception and Action/Exam/Gymnastics Motion Tracking/Code for Gym Tracking/Analyzed Data/Webcam_Backflip/id8_5_pure_Sports2D/id8_5_pure_Sports2D_px_person00.trc
DataRate	CameraRate	NumFrames	NumMarkers	Units	OrigDataRate	OrigDataStartFrame	OrigNumFrames
29.8125	29.8125	10	22	m	29.8125	20	160
Frame#	Time	Hip			RHip			RKnee			RAnkle			RBigToe			RSmallToe			RHeel			LHip			LKnee			LAnkle			LBigToe			LSmallToe			LHeel			Neck			Head			Nose			RShoulder			RElbow			RWrist			LShoulder			LElbow			LWrist		
		X1	Y1	Z1	X2	Y2	Z2	X3	Y3	Z3	X4	Y4	Z4	X5	Y5	Z5	X6	Y6	Z6	X7	Y7	Z7	X8	Y8	Z8	X9	Y9	Z9	X10	Y10	Z10	X11	Y11	Z11	X12	Y12	Z12	X13	Y13	Z13	X14	Y14	Z14	X15	Y15	Z15	X16	Y16	Z16	X17	Y17	Z17	X18	Y18	Z18	X19	Y19	Z19	X20	Y20	Z20	X21	Y21	Z21	X22	Y22	Z22
20	0.670859538784067	0.9297175343326213	-0.6497037111981531	0.0	0.930426866191538	-0.6504515187947713	0.0	0.9993208205783879	-0.7212828057580464	0.0	0.9575797240376507	-0.8073614366061501	0.0	0.9865379854322918	-0.8221150942113581	0.0	0.97750815026917	-0.8229184760249398	0.0	0.9467024069291559	-0.8135037634893421	0.0	0.9335677893837687	-0.6482826974755677	0.0	0.997632427843088	-0.7177325807674383	0.0	0.9580212350665139	-0.8024394469704387	0.0	0.9918407949005199	-0.8213831355699217	0.0	0.9851556262450385	-0.819293240585141	0.0	0.9451630449552832	-0.8079396831164382	0.0	0.9860820121902937	-0.5420407061499855	0.0	1.013274380355328	-0.48526226653609034	0.0	1.023336231670668	-0.5149945205036945	0.0	0.9826368041674962	-0.5587122874954177	0.0	0.9877695880243449	-0.6005982927529494	0.0	0.9982124381048347	-0.6346936293316088	0.0	0.9767213716279628	-0.5510464705614687	0.0	0.984237909986112	-0.5933121571114742	0.0	0.9949372549485423	-0.6267732098615447	0.0
21	0.7044025157232703	0.9324829498186488	-0.6590073591954465	0.0	0.9323742571758651	-0.6600560856411203	0.0	0.9984085146035744	-0.7347052057398678	0.0	0.9581712360876646	-0.8195516707811746	0.0	0.9849684025709267	-0.8333670989761615	0.0	0.9759200363275903	-0.833787775731267	0.0	0.9475541525335259	-0.8256409417501402	0.0	0.9361263200225097	-0.6577455185639832	0.0	0.9966218405881034	-0.7311272743156656	0.0	0.9583450000405616	-0.814394827315365	0.0	0.9906629089833984	-0.8313451489438012	0.0	0.9822836147875863	-0.8292778541830329	0.0	0.9465653225205405	-0.8192309540108561	0.0	0.9761772885310667	-0.5449134972016934	0.0	0.9984609150586091	-0.48536755370469165	0.0	1.0112231710361013	-0.5165418422704778	0.0	0.9741343199798476	-0.5607301732908476	0.0	1.0019035452740264	-0.5929771382702442	0.0	1.0310220006265283	-0.6171181441336903	0.0	0.9682554064075314	-0.5540463381980172	0.0	0.9978894711609397	-0.5870103852899343	0.0	1.0250161847324364	-0.6101156255583186	0.0
22	0.7379454926624737	0.9363836781837369	-0.6607748582809551	0.0	0.935665576591289	-0.6619774408789257	0.0	0.9963472446215832	-0.7416541835764642	0.0	0.9586513563994319	-0.8265634223835014	0.0	0.9835345026594733	-0.8404154751717323	0.0	0.9743345389560147	-0.8409515802797276	0.0	0.948356782908342	-0.8335988067415102	0.0	0.9396866636240543	-0.65947409141439	0.0	0.9942616757201765	-0.7380587533764836	0.0	0.9585667517447637	-0.8210834683499851	0.0	0.9888626250054059	-0.837015821432733	0.0	0.9795302804720789	-0.8350425758348994	0.0	0.9475160567671784	-0.8262439258443486	0.0	0.9657599248062074	-0.5419920601401892	0.0	0.9828075511102341	-0.4796619867449792	0.0	0.9978105898376509	-0.5118109720867603	0.0	0.9649007160203821	-0.5560783393190072	0.0	1.0090816044816544	-0.5703965379757693	0.0	1.050077716943015	-0.5780318214160843	0.0	0.9596665594914644	-0.5500737501320653	0.0	1.0048468670673076	-0.5656413841012138	0.0	1.0427463248930757	-0.572342055254765	0.0
23	0.771488469601677	0.9413131240923609	-0.6535198978521697	0.0	0.9405658749371892	-0.6547548910415281	0.0	0.9935654484489788	-0.739991915973603	0.0	0.9590412582941629	-0.826526079457513	0.0	0.981902840210203	-0.8419261773760186	0.0	0.9725634669526235	-0.8430544743711602	0.0	0.9491706871776865	-0.8354766096329884	0.0	0.9441402543633749	-0.6520886664472704	0.0	0.9911349411729691	-0.7363878185702015	0.0	0.9587947845370652	-0.8206815669836426	0.0	0.9867539777318094	-0.8368411807438345	0.0	0.9777145243690722	-0.8353043510295836	0.0	0.9481894031161	-0.827127548645435	0.0	0.9553249928491088	-0.5323938397618738	0.0	0.9663791594947219	-0.4676613848933006	0.0	0.9830566773428966	-0.5000569390748262	0.0	0.9551053643733707	-0.5442450151851602	0.0	1.0056677059224117	-0.5355629427087505	0.0	1.049195892140222	-0.5238228678337477	0.0	0.9508181073879832	-0.5385873233976007	0.0	1.0014886153536804	-0.5321717372016195	0.0	1.0418658290468086	-0.5197379547064302	0.0
24	0.8050314465408803	0.9467726185213469	-0.6369615383187734	0.0	0.9466579270863583	-0.6382271783935218	0.0	0.9911634150112748	-0.728610008951593	0.0	0.9597434347496693	-0.8180193426738477	0.0	0.9801135010203129	-0.8367988995021336	0.0	0.970831154695667	-0.8387393224817181	0.0	0.9504453432544031	-0.8293614921672033	0.0	0.9490678559780509	-0.635509967933312	0.0	0.988442624717385	-0.725021825602883	0.0	0.9595546371377989	-0.8117520838254163	0.0	0.9848586756607342	-0.8294309160294542	0.0	0.9774164695160135	-0.828837783304452	0.0	0.949292503684069	-0.8199639565924756	0.0	0.9450592510679605	-0.5161321162786846	0.0	0.9489744194533638	-0.44970836806252007	0.0	0.9668602121298858	-0.48161218114409726	0.0	0.9448546401196367	-0.5255759946193931	0.0	0.9906502706442363	-0.4933792084946637	0.0	1.0272766747285949	-0.4635720306651481	0.0	0.941445605390522	-0.5202553002344693	0.0	0.9869225258701718	-0.491819802117226	0.0	1.0210857032311607	-0.46162547506884455	0.0
25	0.8385744234800837	0.9519044519808963	-0.6121606532173861	0.0	0.9528900570551375	-0.613549198727878	0.0	0.9909388579766405	-0.7072835406960055	0.0	0.9616310309461128	-0.8000948030716695	0.0	0.9789353914235799	-0.8240682270458983	0.0	0.9700682566707365	-0.8265883426968194	0.0	0.9529954419675045	-0.813510848924836	0.0	0.953856210061344	-0.610878447529134	0.0	0.9880018820627143	-0.7037557335910255	0.0	0.9617616263198213	-0.7933832012710325	0.0	0.9838761946852053	-0.8137867899463872	0.0	0.978896900818743	-0.8146111354953134	0.0	0.9518416145085307	-0.8031570561117681	0.0	0.9348582793817808	-0.4942066566534118	0.0	0.930565156239829	-0.4270999924759147	0.0	0.9494483686467721	-0.4578177808410474	0.0	0.9341890538760069	-0.5012909136600012	0.0	0.9658700920460674	-0.44941781903992944	0.0	0.9882946447187074	-0.4057654189802237	0.0	0.9314529950963215	-0.49661602460196264	0.0	0.9630707225272928	-0.45006832887749193	0.0	0.9841699424241322	-0.4066773891803258	0.0
26	0.8721174004192871	0.9557441635017816	-0.5813727764660385	0.0	0.9580095533451181	-0.5829449295507857	0.0	0.994750769168549	-0.676401299283255	0.0	0.9658493923378949	-0.772426801229655	0.0	0.9797105874795367	-0.8030285887108934	0.0	0.9717272800330061	-0.8054663901349332	0.0	0.9577557862776502	-0.786904679561749	0.0	0.9578228116670728	-0.5802979206586288	0.0	0.9916289803862073	-0.672924245191255	0.0	0.9664768467174236	-0.7653743246746062	0.0	0.984769662906458	-0.7895375457394114	0.0	0.9824911489726048	-0.7921008359023544	0.0	0.956767747847926	-0.7760555769330018	0.0	0.9243650734630637	-0.4683090257708011	0.0	0.9116465782935954	-0.4016795989042252	0.0	0.9314597438072411	-0.43049825651802	0.0	0.9230053595027732	-0.4732917167616821	0.0	0.935326467026824	-0.40847771739038063	0.0	0.9398981068261903	-0.35615801297883926	0.0	0.9209622332310785	-0.46950884097457507	0.0	0.9338266198340446	-0.41116243818281195	0.0	0.9385208271645556	-0.3606428590971516	0.0
27	0.9056603773584905	0.9576815721695323	-0.547753514516861	0.0	0.961122090907604	-0.549486902926546	0.0	1.0033940846012535	-0.6368297651711338	0.0	0.9733468425698263	-0.735346029294401	0.0	0.9838324247748711	-0.7730852634563308	0.0	0.9772038048882832	-0.7746704122286896	0.0	0.9654428536016485	-0.749675996943615	0.0	0.9603734243405078	-0.5467000418294008	0.0	1.0000415291920337	-0.6332771568623999	0.0	0.9744696808757324	-0.7282492046364152	0.0	0.9886530730062298	-0.7568642059941811	0.0	0.9887669703775811	-0.7612014278595579	0.0	0.9646105922237975	-0.7391958341815583	0.0	0.9131635181657167	-0.4406208147803739	0.0	0.8930581525963428	-0.3754781117961897	0.0	0.9136703898907388	-0.40178952408550817	0.0	0.9112251955871993	-0.44402881244402265	0.0	0.9041640943787199	-0.3736377823207264	0.0	0.8915441719160134	-0.3171487086433139	0.0	0.9101264555023195	-0.44101317966110076	0.0	0.9039889681499648	-0.377595083466605	0.0	0.8931061789681863	-0.3257080444588441	0.0
28	0.9392033542976937	0.957806888298459	-0.5147333090249225	0.0	0.9620703780635171	-0.5166057535108812	0.0	1.0155691015979096	-0.5899261381384646	0.0	0.9844597254434223	-0.6898258239719655	0.0	0.9923928270230885	-0.7335628318953815	0.0	0.9874425621557393	-0.7338386365001597	0.0	0.9764456252351166	-0.7032144907637413	0.0	0.961211581867668	-0.5134700587133737	0.0	1.0118815095552842	-0.5862213209982515	0.0	0.9858454720473969	-0.6832096062194702	0.0	0.9964220008099975	-0.7161918170075956	0.0	0.9981973118671268	-0.7218885441914259	0.0	0.9755964149389748	-0.6941097377857106	0.0	0.9010350071891504	-0.41374935602457363	0.0	0.8751839888841241	-0.3508361187434962	0.0	0.8965469219504847	-0.37429321206352645	0.0	0.8990343860684133	-0.4162567691579954	0.0	0.8774717383733786	-0.3458850369656767	0.0	0.8523120307758401	-0.2880728984438494	0.0	0.8989220790335589	-0.4136710374168608	0.0	0.8781397986602926	-0.3502531673660519	0.0	0.8561072904937804	-0.3007423664613692	0.0
29	0.9727463312368971	0.9568215342075269	-0.4850516923907638	0.0	0.9614637946343474	-0.4870747376654153	0.0	1.0277340105555692	-0.5375854580802873	0.0	0.9987452726516318	-0.6375612175026445	0.0	1.0059637443151181	-0.6840797723552846	0.0	1.002780847703146	-0.6831894188848899	0.0	0.9908049367482922	-0.6499600534998781	0.0	0.9604709741899408	-0.4834977412384339	0.0	1.023597752973973	-0.534027906267442	0.0	0.9999331194183282	-0.6320252526919753	0.0	1.0084933098740305	-0.6677808270337103	0.0	1.0109382582786253	-0.6740607330444961	0.0	0.9897832324086946	-0.6429885154054874	0.0	0.8881804044564388	-0.3903528018545859	0.0	0.8575246602460789	-0.3305145233941761	0.0	0.8800941052642296	-0.3507277439878356	0.0	0.8869159755414813	-0.39241837738751945	0.0	0.8590468669880365	-0.3245864154139483	0.0	0.8284598596019699	-0.26650161296549046	0.0	0.8873137301600664	-0.39016751111804454	0.0	0.8596699882774468	-0.32893978582019184	0.0	0.832847477842098	-0.28256167127857174	0.0
